<svg width="22" height="18" viewBox="0 0 22 18" fill="none" xmlns="http://www.w3.org/2000/svg">
<path d="M15.3443 0.333313C13.6393 0.333313 12.0673 1.05361 11.0003 2.29293C9.93333 1.05329 8.36173 0.333313 6.65639 0.333313C3.53762 0.333313 1 2.78098 1 5.78992C1 11.303 7.78726 15.8764 10.7051 17.587C10.7957 17.6402 10.8977 17.6666 11 17.6666C11.1023 17.6666 11.2043 17.6402 11.2949 17.587C14.2131 15.8767 21 11.3033 21 5.78992C21 2.7813 18.4627 0.333313 15.3436 0.333313H15.3443ZM17.1011 11.6533C15.586 13.3271 13.4814 14.99 11.0003 16.4757C8.51923 14.99 6.41497 13.3271 4.89955 11.6533C3.06581 9.62786 2.13623 7.65502 2.13623 5.78992C2.13623 3.38548 4.16391 1.42941 6.65639 1.42941C8.2437 1.42941 9.68622 2.21067 10.5158 3.51902C10.6191 3.68192 10.8027 3.78127 11.0003 3.78127C11.198 3.78127 11.3819 3.68192 11.4849 3.51902C12.3141 2.21067 13.757 1.42941 15.3443 1.42941C17.8368 1.42941 19.8644 3.38548 19.8644 5.78992C19.8644 7.65502 18.9345 9.62786 17.1011 11.6533Z" fill="#AFB9CA" stroke="#AFB9CA" stroke-width="0.625"/>
</svg>
